<svg xmlns="http://www.w3.org/2000/svg" width="144" height="144" viewBox="0 0 144 144"><rect width="144" height="144" rx="18" fill="#0f1d38"/><rect x="2" y="2" width="140" height="140" rx="16" fill="none" stroke="#3b82f6" stroke-width="4"/><rect x="8" y="8" width="128" height="24" rx="8" fill="#3b82f6"/><text x="16" y="26" font-family="'Hiragino Sans','Hiragino Kaku Gothic ProN','Yu Gothic UI','Meiryo',sans-serif" font-size="15" font-weight="800" fill="#f8fafc" text-anchor="start">作業中</text><rect x="112" y="38" width="4" height="4" fill="#60a5fa"/><rect x="108" y="42" width="8" height="4" fill="#60a5fa"/><rect x="108" y="46" width="8" height="4" fill="#60a5fa"/><rect x="52" y="50" width="8" height="4" fill="#f8fafc"/><rect x="64" y="50" width="8" height="4" fill="#f8fafc"/><rect x="76" y="50" width="8" height="4" fill="#f8fafc"/><rect x="44" y="54" width="56" height="4" fill="#f8fafc"/><rect x="40" y="58" width="48" height="4" fill="#f8fafc"/><rect x="88" y="58" width="16" height="4" fill="#52525b"/><rect x="36" y="62" width="48" height="4" fill="#f8fafc"/><rect x="84" y="62" width="24" height="4" fill="#52525b"/><rect x="24" y="66" width="12" height="4" fill="#93c5fd"/><rect x="36" y="66" width="48" height="4" fill="#f8fafc"/><rect x="84" y="66" width="12" height="4" fill="#52525b"/><rect x="96" y="66" width="4" height="4" fill="#ffffff"/><rect x="100" y="66" width="8" height="4" fill="#52525b"/><rect x="36" y="70" width="48" height="4" fill="#f8fafc"/><rect x="84" y="70" width="24" height="4" fill="#52525b"/><rect x="36" y="74" width="48" height="4" fill="#f8fafc"/><rect x="84" y="74" width="16" height="4" fill="#52525b"/><rect x="100" y="74" width="4" height="4" fill="#f9a8d4"/><rect x="24" y="78" width="12" height="4" fill="#93c5fd"/><rect x="40" y="78" width="48" height="4" fill="#f8fafc"/><rect x="88" y="78" width="12" height="4" fill="#52525b"/><rect x="44" y="82" width="4" height="4" fill="#cbd5e1"/><rect x="48" y="82" width="40" height="4" fill="#f8fafc"/><rect x="88" y="82" width="4" height="4" fill="#cbd5e1"/><rect x="48" y="86" width="40" height="4" fill="#cbd5e1"/><rect x="44" y="90" width="4" height="4" fill="#a1a1aa"/><rect x="60" y="90" width="4" height="4" fill="#a1a1aa"/><rect x="72" y="90" width="4" height="4" fill="#a1a1aa"/><rect x="88" y="90" width="4" height="4" fill="#a1a1aa"/><rect x="40" y="94" width="4" height="4" fill="#a1a1aa"/><rect x="64" y="94" width="4" height="4" fill="#a1a1aa"/><rect x="72" y="94" width="4" height="4" fill="#a1a1aa"/><rect x="96" y="94" width="4" height="4" fill="#a1a1aa"/><text x="72" y="116" font-family="'Hiragino Sans','Hiragino Kaku Gothic ProN','Yu Gothic UI','Meiryo',sans-serif" font-size="16" font-weight="800" fill="#f8fafc" text-anchor="middle">herdr</text><text x="72" y="133" font-family="'Hiragino Sans','Hiragino Kaku Gothic ProN','Yu Gothic UI','Meiryo',sans-serif" font-size="12" font-weight="500" fill="#cbd5e1" text-anchor="middle">Claude Code</text></svg>
