<svg xmlns="http://www.w3.org/2000/svg" width="128" height="128" viewBox="0 0 64 64"><rect width="64" height="64" rx="5" fill="#5a1a2e"/><text x="32.8" y="16.8" font-family="'Hiragino Sans','Hiragino Kaku Gothic ProN','Yu Gothic UI','Meiryo',sans-serif" font-size="14" font-weight="800" text-anchor="middle" fill="#000000" fill-opacity="0.45">スペース</text><text x="32" y="16" font-family="'Hiragino Sans','Hiragino Kaku Gothic ProN','Yu Gothic UI','Meiryo',sans-serif" font-size="14" font-weight="800" text-anchor="middle" fill="#ffffff">スペース</text><rect x="14" y="50" width="8" height="2" fill="#1b1530"/><rect x="12" y="52" width="2" height="2" fill="#1b1530"/><rect x="14" y="52" width="8" height="2" fill="#f7c948"/><rect x="22" y="52" width="2" height="2" fill="#1b1530"/><rect x="12" y="54" width="4" height="2" fill="#1b1530"/><rect x="16" y="54" width="4" height="2" fill="#f7c948"/><rect x="20" y="54" width="4" height="2" fill="#1b1530"/><rect x="12" y="56" width="2" height="2" fill="#1b1530"/><rect x="14" y="56" width="8" height="2" fill="#f7c948"/><rect x="22" y="56" width="2" height="2" fill="#1b1530"/><rect x="14" y="58" width="8" height="2" fill="#1b1530"/><rect x="28" y="50" width="8" height="2" fill="#1b1530"/><rect x="26" y="52" width="2" height="2" fill="#1b1530"/><rect x="28" y="52" width="8" height="2" fill="#f2557d"/><rect x="36" y="52" width="2" height="2" fill="#1b1530"/><rect x="26" y="54" width="4" height="2" fill="#1b1530"/><rect x="30" y="54" width="4" height="2" fill="#f2557d"/><rect x="34" y="54" width="4" height="2" fill="#1b1530"/><rect x="26" y="56" width="2" height="2" fill="#1b1530"/><rect x="28" y="56" width="8" height="2" fill="#f2557d"/><rect x="36" y="56" width="2" height="2" fill="#1b1530"/><rect x="28" y="58" width="8" height="2" fill="#1b1530"/><rect x="42" y="50" width="8" height="2" fill="#1b1530"/><rect x="40" y="52" width="2" height="2" fill="#1b1530"/><rect x="42" y="52" width="8" height="2" fill="#7fe3c4"/><rect x="50" y="52" width="2" height="2" fill="#1b1530"/><rect x="40" y="54" width="4" height="2" fill="#1b1530"/><rect x="44" y="54" width="4" height="2" fill="#7fe3c4"/><rect x="48" y="54" width="4" height="2" fill="#1b1530"/><rect x="40" y="56" width="2" height="2" fill="#1b1530"/><rect x="42" y="56" width="8" height="2" fill="#7fe3c4"/><rect x="50" y="56" width="2" height="2" fill="#1b1530"/><rect x="42" y="58" width="8" height="2" fill="#1b1530"/></svg>
